<svg xmlns="http://www.w3.org/2000/svg" width="430" height="430" fill="none" viewBox="0 0 430 430"><path fill="#3a3347" fill-rule="evenodd" d="M120 125.5c0-52.467 42.533-95 95-95s95 42.533 95 95v70h-20v-70c0-41.421-33.579-75-75-75s-75 33.579-75 75v70h-20z" clip-rule="evenodd"/><path fill="#ffc738" d="M85 193.5a3 3 0 0 1 3-3h254a3 3 0 0 1 3 3v147c0 22.091-17.909 40-40 40H125c-22.091 0-40-17.909-40-40z"/><path fill="#ffc738" d="M140 190.5H88a3 3 0 0 0-3 3v147c0 22.091 17.909 40 40 40h55c-22.091 0-40-17.909-40-40z" opacity=".5" style="mix-blend-mode:multiply"/><path stroke="#ffc738" stroke-linecap="round" stroke-linejoin="round" stroke-width="10" d="m188.357 324.309 34.422.296c10.529.082 19.415-8.703 19.445-19.599.031-10.875-8.773-19.71-19.649-19.71h-15.089c-10.886 0-19.711-8.825-19.711-19.711s8.825-19.7 19.711-19.7h30.545M215.005 340v-15.467m0-78.638V230"/></svg>